<svg width="800" height="500" viewBox="0 0 800 500" fill="none" xmlns="http://www.w3.org/2000/svg">
  <!-- Background -->
  <rect width="800" height="500" rx="10" fill="#F6F8FA"/>
  
  <!-- Header -->
  <rect width="800" height="60" rx="10" fill="#FFFFFF"/>
  <rect x="30" y="20" width="120" height="20" rx="4" fill="#FF5C35"/>
  <rect x="500" y="20" width="60" height="20" rx="4" fill="#EAF0F6"/>
  <rect x="580" y="20" width="60" height="20" rx="4" fill="#EAF0F6"/>
  <rect x="660" y="20" width="60" height="20" rx="4" fill="#EAF0F6"/>
  <rect x="740" y="20" width="30" height="20" rx="10" fill="#FF5C35"/>
  
  <!-- Sidebar -->
  <rect width="200" height="440" y="60" rx="0" fill="#FFFFFF"/>
  <rect x="20" y="100" width="160" height="12" rx="4" fill="#EAF0F6"/>
  <rect x="20" y="140" width="160" height="12" rx="4" fill="#EAF0F6"/>
  <rect x="20" y="180" width="160" height="12" rx="4" fill="#EAF0F6"/>
  <rect x="20" y="220" width="160" height="12" rx="4" fill="#EAF0F6"/>
  <rect x="20" y="260" width="160" height="12" rx="4" fill="#EAF0F6"/>
  <rect x="20" y="300" width="100" height="12" rx="4" fill="#FF5C35"/>
  
  <!-- Main Content Area -->
  <rect x="220" y="80" width="560" height="400" rx="10" fill="#FFFFFF"/>
  
  <!-- Dashboard Title -->
  <rect x="250" y="100" width="200" height="25" rx="4" fill="#33475B"/>
  
  <!-- Statistics Cards -->
  <rect x="250" y="150" width="150" height="100" rx="8" fill="#EAF0F6"/>
  <rect x="270" y="170" width="80" height="15" rx="4" fill="#7C98B6"/>
  <rect x="270" y="200" width="110" height="30" rx="4" fill="#33475B"/>
  
  <rect x="420" y="150" width="150" height="100" rx="8" fill="#EAF0F6"/>
  <rect x="440" y="170" width="80" height="15" rx="4" fill="#7C98B6"/>
  <rect x="440" y="200" width="110" height="30" rx="4" fill="#33475B"/>
  
  <rect x="590" y="150" width="150" height="100" rx="8" fill="#EAF0F6"/>
  <rect x="610" y="170" width="80" height="15" rx="4" fill="#7C98B6"/>
  <rect x="610" y="200" width="110" height="30" rx="4" fill="#FF5C35"/>
  
  <!-- Chart Area -->
  <rect x="250" y="270" width="490" height="180" rx="8" fill="#EAF0F6"/>
  <rect x="270" y="290" width="150" height="20" rx="4" fill="#33475B"/>
  
  <!-- Chart Bars -->
  <rect x="290" y="330" width="30" height="100" rx="4" fill="#FF5C35"/>
  <rect x="340" y="350" width="30" height="80" rx="4" fill="#FF5C35"/>
  <rect x="390" y="320" width="30" height="110" rx="4" fill="#FF5C35"/>
  <rect x="440" y="370" width="30" height="60" rx="4" fill="#FF5C35"/>
  <rect x="490" y="330" width="30" height="100" rx="4" fill="#FF5C35"/>
  <rect x="540" y="310" width="30" height="120" rx="4" fill="#FF5C35"/>
  <rect x="590" y="340" width="30" height="90" rx="4" fill="#FF5C35"/>
  <rect x="640" y="360" width="30" height="70" rx="4" fill="#FF5C35"/>
  
  <!-- X-Axis Labels -->
  <rect x="290" y="440" width="20" height="5" rx="2" fill="#7C98B6"/>
  <rect x="340" y="440" width="20" height="5" rx="2" fill="#7C98B6"/>
  <rect x="390" y="440" width="20" height="5" rx="2" fill="#7C98B6"/>
  <rect x="440" y="440" width="20" height="5" rx="2" fill="#7C98B6"/>
  <rect x="490" y="440" width="20" height="5" rx="2" fill="#7C98B6"/>
  <rect x="540" y="440" width="20" height="5" rx="2" fill="#7C98B6"/>
  <rect x="590" y="440" width="20" height="5" rx="2" fill="#7C98B6"/>
  <rect x="640" y="440" width="20" height="5" rx="2" fill="#7C98B6"/>
</svg> 